<?xml version="1.0" encoding="utf-8"?>
<!-- Generator: Adobe Illustrator 19.0.0, SVG Export Plug-In . SVG Version: 6.00 Build 0)  -->
<svg version="1.1" id="Layer_1" xmlns="http://www.w3.org/2000/svg" xmlns:xlink="http://www.w3.org/1999/xlink" x="0px" y="0px"
	 viewBox="0 0 58.5 83.8" style="enable-background:new 0 0 58.5 83.8;" xml:space="preserve">
<style type="text/css">
	.st0{fill:none;stroke:#ED8BA7;stroke-width:3;stroke-linecap:round;stroke-linejoin:round;stroke-miterlimit:10;}
	.st1{fill:none;stroke:#ED8BA7;stroke-width:3;stroke-linejoin:round;stroke-miterlimit:10;}
</style>
<g id="Peace">
	<path id="XMLID_7_" class="st0" d="M48.8,40.4c0,2.3-1.9,4.2-4.2,4.2s-4.2-1.9-4.2-4.2"/>
	<path id="XMLID_2_" class="st1" d="M31.9,40.7v-8.9c0-2.3,1.9-4.2,4.2-4.2s4.2,1.9,4.2,4.2v8.5c0,2.3-1.9,4.2-4.2,4.2
		c-0.3,0-1.3-0.2-1.6-0.3"/>
	<path id="XMLID_1_" class="st1" d="M14.3,42.2L8.8,16L9,16.5C8.4,14.3,9.8,12,12,11.4c2.3-0.6,4.5,0.8,5.1,3.1l6.4,22.9l5.8-23.4
		c0.3-2.3,2.4-4,4.7-3.7c2.3,0.3,4,2.4,3.7,4.7l-3,13"/>
	<path id="XMLID_3_" class="st0" d="M40.4,33.7c0-2.3,1.9-4.2,4.2-4.2s4.2,1.9,4.2,4.2l0,11.2c0,7.9-1.5,29.2-10.3,30.1H27.3
		C23,75,16.3,75.8,14.7,72c-3-7.1-5.5-14-5.5-19.4v-0.7c0-6.6,5.7-12.8,14.7-12.6c2.4,0,5.4,0.4,7.4,1.1l0.3,0.1
		c1.3,0.5,3,1.4,3,3.8c0,2.3-1.8,4.2-4.1,4.3c-1.7,0.1-4.2-0.5-5.2,0.4c-1.6,1.5-3.2,3-4.7,4.5"/>
</g>
</svg>
