<?xml version="1.0" encoding="utf-8"?>
<!-- Generator: Adobe Illustrator 19.0.0, SVG Export Plug-In . SVG Version: 6.00 Build 0)  -->
<svg version="1.1" id="Layer_1" xmlns="http://www.w3.org/2000/svg" xmlns:xlink="http://www.w3.org/1999/xlink" x="0px" y="0px"
	 viewBox="0 0 250 53" style="enable-background:new 0 0 250 53;" xml:space="preserve">
<style type="text/css">
	.st0{fill:#ED8BA7;}
	.st1{fill:none;}
</style>
<polygon id="XMLID_93_" class="st0" points="37.5,8.1 37.3,7.6 37.3,8.1 "/>
<path id="XMLID_27_" class="st0" d="M37.8,5.8h-31v8.7l3.4,1.3h7.1v28.3l3.4,1.3h9V15.7h10.5V8.1L37.8,5.8z M36.8,8.1v5.4H26.3v29.6
	h-5.6h-2.4V15.7v-2.3h-8.1H7.8V6.8h29.1V8.1z"/>
<path id="XMLID_3_" class="st1" d="M60.1,21.6c0.7-0.1,1.4-0.3,2-0.6c0.6-0.3,1-0.7,1.4-1.2c0.3-0.5,0.5-1.2,0.5-2
	c0-0.8-0.2-1.4-0.5-1.9c-0.1-0.2-0.2-0.3-0.4-0.4c-0.6-0.1-1.2-0.1-1.8-0.1h-4.8v6.4h1.4C58.6,21.8,59.4,21.7,60.1,21.6z"/>
<polygon id="XMLID_90_" class="st0" points="66.8,43.6 66.9,43.7 67.4,43.6 "/>
<path id="XMLID_25_" class="st0" d="M64.6,15.7c-0.1-0.2-0.1-0.3-0.2-0.4c-0.4-0.6-1-1.1-1.6-1.4c-0.6-0.3-1.3-0.5-2.1-0.7
	c-0.7-0.1-1.5-0.2-2.2-0.2h-5.3v9.7h3.4h1.4c0.8,0,1.6-0.1,2.4-0.2c0.8-0.1,1.6-0.4,2.3-0.7c0.7-0.4,1.3-0.9,1.8-1.5
	c0.5-0.7,0.7-1.6,0.7-2.6C65,17,64.8,16.3,64.6,15.7z M56.5,15.3h4.8c0.6,0,1.2,0,1.8,0.1c0.1,0.1,0.3,0.3,0.4,0.4
	c0.3,0.5,0.5,1.1,0.5,1.9c0,0.8-0.2,1.5-0.5,2c-0.4,0.5-0.8,0.9-1.4,1.2c-0.6,0.3-1.3,0.5-2,0.6c-0.7,0.1-1.5,0.2-2.2,0.2h-1.4V15.3
	z"/>
<path id="XMLID_15_" class="st0" d="M78.3,45.3l-9.7-16c2.4-0.7,4.3-2,5.7-3.7c1.4-1.7,2.1-3.8,2.1-6.4c0-2.1-0.4-3.9-1.2-5.4
	c-0.8-1.4-1.9-2.6-3.2-3.5c-0.2-0.1-0.3-0.2-0.5-0.3c-0.5-0.3-0.9-0.5-1.4-0.7c-0.6-0.2-1.2-0.5-1.8-0.6c0.2,0.1,0.4,0.2,0.5,0.3
	c1.3,0.8,2.3,1.9,3.1,3.3c0.8,1.4,1.1,3.1,1.1,5.1c0,2.4-0.7,4.4-1.9,6.1c-1.3,1.6-3.1,2.8-5.4,3.5l-0.6,0.2l9.6,15.7h-8l0.3,0.5
	h0.6l0.4-0.1l0,0.1l0.3,0.5l0.1,0.3l-0.4,1H78.3z"/>
<path id="XMLID_26_" class="st0" d="M69.2,8.3c-1.4-0.9-3-1.6-4.7-1.9c-1.7-0.4-3.5-0.6-5.3-0.6H44.4v38.3h0.3h-0.3l3.4,1.3h8.8
	V30.5h0.5l7.4,13.5h0.3l2-0.4l-0.1-0.1l-0.3-0.5h-1.4l-6.9-12.5L57,28.3h-3.9v14.8h-5.4h-2.4V6.8h13.7c1.7,0,3.5,0.2,5.1,0.5
	c1.4,0.3,2.7,0.8,3.9,1.5c0.6,0.2,1.2,0.4,1.8,0.6c0.5,0.2,1,0.5,1.4,0.7C70.7,9.5,70,8.8,69.2,8.3z"/>
<polygon id="XMLID_128_" class="st0" points="64.9,44.1 64.5,44.1 67.8,45.3 67.1,44.1 "/>
<polygon id="XMLID_129_" class="st0" points="68,44.1 67.1,44.1 67.8,45.3 68.2,44.4 "/>
<polygon id="XMLID_130_" class="st0" points="66.9,43.7 64.9,44.1 67.1,44.1 "/>
<polygon id="XMLID_131_" class="st0" points="67.4,43.6 66.9,43.7 67.1,44.1 68,44.1 67.8,43.6 "/>
<polygon id="XMLID_132_" class="st0" points="67.4,43.6 67.8,43.6 67.8,43.5 "/>
<path id="XMLID_32_" class="st1" d="M177.1,6.8h-13v36.3h2.4h11c2.5,0,5-0.4,7.4-1.1c2.4-0.7,4.6-1.8,6.5-3.3
	c1.9-1.5,3.5-3.4,4.7-5.7c1.2-2.3,1.8-5.1,1.8-8.2c0-3.4-0.6-6.3-1.8-8.6c-1.2-2.3-2.8-4.2-4.7-5.5c-0.7-0.5-1.4-0.9-2.1-1.3
	c-1.4-0.7-2.9-1.3-4.5-1.7C182.3,7.1,179.7,6.8,177.1,6.8z M187.2,17.4c0.5,0.6,0.9,1.2,1.3,2c0.7,1.5,1.1,3.3,1.1,5.5
	c0,2.1-0.4,4-1.1,5.4c-0.7,1.5-1.7,2.7-2.9,3.6c-1.2,0.9-2.6,1.5-4.1,1.9c-1.5,0.4-3.1,0.6-4.8,0.6h-1.3h-3.4V13.5h5
	c1.6,0,3.1,0.2,4.6,0.5c1.5,0.4,2.9,1,4.1,1.8C186.2,16.3,186.7,16.8,187.2,17.4z"/>
<path id="XMLID_37_" class="st1" d="M179.8,15.7h-4.5v19.6h1.3c1.6,0,3.1-0.2,4.5-0.5c1.4-0.4,2.7-0.9,3.8-1.7
	c1.1-0.8,1.9-1.9,2.6-3.2c0.6-1.3,1-3,1-5c0-2-0.3-3.7-1-5c-0.6-1.3-1.5-2.4-2.6-3.1c-0.2-0.1-0.4-0.3-0.6-0.4c0,0,0,0-0.1,0
	C182.9,15.9,181.4,15.7,179.8,15.7z"/>
<polygon id="XMLID_39_" class="st0" points="166.6,45.3 166.6,45.3 166.6,45.3 "/>
<path id="XMLID_7_" class="st1" d="M185,42c2.4-0.7,4.6-1.8,6.5-3.3c1.9-1.5,3.5-3.4,4.7-5.7c1.2-2.3,1.8-5.1,1.8-8.2
	c0-3.4-0.6-6.3-1.8-8.6c-1.2-2.3-2.8-4.2-4.7-5.5c-0.7-0.5-1.4-0.9-2.1-1.3c-1.4-0.7-2.9-1.3-4.5-1.7c-2.5-0.6-5.1-0.9-7.7-0.9h-13
	v36.3h2.4h11C180.1,43.1,182.6,42.7,185,42z"/>
<g id="XMLID_1_">
	<path id="XMLID_18_" class="st0" d="M188.5,19.4c-0.4-0.7-0.8-1.4-1.3-2c-0.5-0.6-1-1.1-1.6-1.5c-1.2-0.9-2.6-1.5-4.1-1.8
		c-1.5-0.4-3-0.5-4.6-0.5h-5v22.8h3.4h1.3c1.6,0,3.3-0.2,4.8-0.6c1.5-0.4,2.9-1,4.1-1.9c1.2-0.9,2.2-2.1,2.9-3.6
		c0.7-1.5,1.1-3.3,1.1-5.4C189.6,22.7,189.2,20.8,188.5,19.4z M175.4,15.7h4.5c1.5,0,3,0.2,4.5,0.5c0,0,0,0,0.1,0
		c0.2,0.1,0.4,0.3,0.6,0.4c1.1,0.8,1.9,1.8,2.6,3.1c0.6,1.3,1,3,1,5c0,2-0.3,3.7-1,5c-0.6,1.3-1.5,2.4-2.6,3.2
		c-1.1,0.8-2.4,1.4-3.8,1.7c-1.4,0.4-3,0.5-4.5,0.5h-1.3V15.7z"/>
	<path id="XMLID_21_" class="st0" d="M199.5,17.7c-1.2-2.4-2.8-4.3-4.8-5.7c-0.2-0.1-0.4-0.3-0.6-0.4c-0.6-0.6-1.3-1.3-2-1.8
		c-2-1.5-4.4-2.5-7-3.1c-2.6-0.6-5.3-0.9-7.9-0.9h-14v38.3h1.6h-1.6l3.4,1.3l0,0h13.9c2.6,0,5.1-0.4,7.6-1.1
		c2.5-0.7,4.7-1.8,6.7-3.4c2-1.5,3.6-3.5,4.8-5.8c1.2-2.4,1.8-5.2,1.8-8.5C201.4,23.1,200.8,20.1,199.5,17.7z M177.5,43.1h-11h-2.4
		V6.8h13c2.6,0,5.2,0.3,7.7,0.9c1.6,0.4,3.1,1,4.5,1.7c0.7,0.4,1.5,0.8,2.1,1.3c1.9,1.4,3.5,3.2,4.7,5.5c1.2,2.3,1.8,5.2,1.8,8.6
		c0,3.2-0.6,5.9-1.8,8.2c-1.2,2.3-2.7,4.2-4.7,5.7c-1.9,1.5-4.1,2.6-6.5,3.3C182.6,42.7,180.1,43.1,177.5,43.1z"/>
</g>
<path id="XMLID_160_" class="st0" d="M155.4,8.1l-2.3-2.3l0,0.2V5.8h-9.7l0.2,21.2l-11.7-19h0l0,0l-2.6-2.2h-11v38.3h1.6h-1.6
	l3.4,1.3l0,0v0h8.7l-0.2-20.6L142,44.1h2.4l0,0l-2.5,0.1l3.3,1.2l0,0h0h10.2L155.4,8.1L155.4,8.1L155.4,8.1z M142.6,43.1l-12.5-20.3
	l-2.5-4.1h-0.9l0.2,24.4h-5.3h-2.4V6.8h9.5l0.8,1.3l14.2,23.1h0.9l0-2.5l-0.2-21.9h7.7v1.3v35h-8.2H142.6z"/>
<path id="XMLID_182_" class="st0" d="M239.5,5.7l-0.4,0.5l0.3-0.4h-11.8l-7,12.1l-5.7-9.9l-2.6-2.3l0,0.1l0-0.1h-12.1l14.4,22.1
	v16.2h1.6l-1.7,0l3.5,1.2v0h0h9V29.5l14.3-21.5L239.5,5.7z M211.7,6.8l0.4,0.7l0,0.1l0.3,0.4l0,0.1l7.5,13l1.2-2.2l7-12.1h9.3
	l-0.8,1.3l-13.1,19.6v15.5H218h-2.4V27.6L202,6.8H211.7z"/>
<path id="XMLID_78_" class="st0" d="M109.8,35.3l0,0.2L109.8,35.3l-14.9,0.1v-5.5h15.5v-7.2l-2.3-2.3l-0.1,0.3v-0.2H94.8v-4.8h16.4
	V8.1l0,0l0,0v0h0l-2.3-2.3L108.8,6V5.8H82.7v38.3h1.6h-1.6l3.4,1.3h26v-7.7L109.8,35.3z M83.7,6.8h24.1v1.3v5.3H91.4v8.1h3.4h12.1
	v1.3v5H91.4v8.7h3.4h13.9v1.3v5.4H86.1h-2.4V6.8z"/>
</svg>
