<?xml version="1.0" encoding="utf-8"?>
<!-- Generator: Adobe Illustrator 19.0.0, SVG Export Plug-In . SVG Version: 6.00 Build 0)  -->
<svg version="1.1" id="Layer_1" xmlns="http://www.w3.org/2000/svg" xmlns:xlink="http://www.w3.org/1999/xlink" x="0px" y="0px"
	 viewBox="0 0 250 250" style="enable-background:new 0 0 250 250;" xml:space="preserve">
<style type="text/css">
	.st0{fill:none;stroke:#ED8BA7;stroke-linecap:round;stroke-linejoin:round;stroke-miterlimit:10;}
	.st1{fill:none;stroke:#ED8BA7;stroke-linejoin:round;stroke-miterlimit:10;}
</style>
<g id="Peace">
	<path id="XMLID_7_" class="st0" d="M144.8,124.9c0,2.3-1.9,4.2-4.2,4.2s-4.2-1.9-4.2-4.2"/>
	<path id="XMLID_2_" class="st1" d="M127.9,125.2v-8.9c0-2.3,1.9-4.2,4.2-4.2s4.2,1.9,4.2,4.2v8.5c0,2.3-1.9,4.2-4.2,4.2
		c-0.3,0-1.3-0.2-1.6-0.3"/>
	<path id="XMLID_1_" class="st1" d="M110.3,126.7l-5.5-26.2l0.2,0.5c-0.6-2.3,0.8-4.5,3.1-5.1s4.5,0.8,5.1,3.1l6.4,22.9l5.8-23.4
		c0.3-2.3,2.4-4,4.7-3.7c2.3,0.3,4,2.4,3.7,4.7l-3,13"/>
	<path id="XMLID_3_" class="st0" d="M136.4,118.2c0-2.3,1.9-4.2,4.2-4.2s4.2,1.9,4.2,4.2l0,11.2c0,7.9-1.5,29.2-10.3,30.1h-11.2
		c-4.4-0.1-11,0.7-12.6-3.1c-3-7.1-5.5-14-5.5-19.4v-0.7c0-6.6,5.7-12.8,14.7-12.6c2.4,0,5.4,0.4,7.4,1.1l0.3,0.1
		c1.3,0.5,3,1.4,3,3.8c0,2.3-1.8,4.2-4.1,4.3c-1.7,0.1-4.2-0.5-5.2,0.4c-1.6,1.5-3.2,3-4.7,4.5"/>
</g>
</svg>
